#!OML:ASF E:\Steps\Project 1\Capture day 1\Session 2\Subject.ASF
:FULLY-SPECIFIED
:DEGREES
431
root 9.36948 16.1475 23.9097 -155.799 -1.77621 176.703
lowerback -24.2214 -2.33339 -5.3111
upperback -1.04068 -1.96889 -0.430174
thorax 12.5863 -1.37696 1.8428
lowerneck 1.16473 -3.04622 -0.425591
upperneck -1.31206 -4.06009 0.594212
head -0.565771 -2.03147 0.281905
rclavicle 2.5345e-015 -1.78906e-015
rhumerus -35.7892 -13.4391 -80.9165
rradius 30.1996
rwrist -0.593636
rhand -8.82859 -50.7504
rfingers 7.12502
rthumb 17.1114 -80.0169
lclavicle 2.5345e-015 -1.78906e-015
lhumerus -34.3317 -4.98343 86.2921
lradius 29.8844
lwrist -2.24771
lhand -21.3529 -13.4414
lfingers 7.12502
lthumb 5.03363 16.4789
rfemur -31.8887 8.00203 17.7236
rtibia 28.5473
rfoot -25.9892 -6.87578
rtoes -22.5842
lfemur -31.3435 -10.7264 -20.616
ltibia 27.4052
lfoot -14.9555 4.02961
ltoes -39.8154
432
root 9.3707 16.1279 23.8992 -155.766 -1.87944 176.712
lowerback -24.2091 -2.32656 -5.24595
upperback -1.04519 -1.97509 -0.465897
thorax 12.5711 -1.37461 1.76326
lowerneck 1.39145 -3.41902 -0.524858
upperneck -1.77583 -4.56105 0.353835
head -0.746876 -2.27765 0.240258
rclavicle 1.45858e-014 -3.97569e-016
rhumerus -35.4161 -14.0759 -80.795
rradius 29.685
rwrist 0.0435972
rhand -8.48494 -49.1817
rfingers 7.12502
rthumb 17.4422 -78.4191
lclavicle 1.45858e-014 -3.97569e-016
lhumerus -34.0588 -4.85945 86.2157
lradius 29.5831
lwrist -2.45196
lhand -21.3278 -13.6695
lfingers 7.12502
lthumb 5.05783 16.2502
rfemur -31.8038 8.0144 17.7717
rtibia 28.4582
rfoot -26.3441 -6.79809
rtoes -20.947
lfemur -31.4506 -10.8383 -20.5874
ltibia 27.6031
lfoot -15.2287 4.2545
ltoes -41.3523
433
root 9.37191 16.1092 23.8917 -155.756 -1.97441 176.831
lowerback -24.1796 -2.27703 -5.09125
upperback -1.01831 -1.94771 -0.46697
thorax 12.5789 -1.35106 1.68386
lowerneck 1.31287 -3.37753 -0.454096
upperneck -2.41137 -4.49364 0.53576
head -0.928462 -2.24316 0.290393
rclavicle 6.90777e-015 5.36719e-015
rhumerus -35.1586 -14.3806 -80.7808
rradius 29.5128
rwrist 0.290736
rhand -8.78551 -51.9691
rfingers 7.12502
rthumb 17.1529 -81.232
lclavicle 6.90777e-015 5.36719e-015
lhumerus -33.6431 -4.50915 86.0842
lradius 29.1863
lwrist -2.72034
lhand -21.4158 -13.6336
lfingers 7.12502
lthumb 4.97291 16.2881
rfemur -31.7709 8.16292 17.9076
rtibia 28.4824
rfoot -26.6549 -6.66879
rtoes -19.7184
lfemur -31.6402 -10.8379 -20.4319
ltibia 27.9814
lfoot -15.6293 4.1572
ltoes -41.5954
434
root 9.37323 16.0941 23.8846 -155.854 -2.04261 176.937
lowerback -24.0422 -2.23718 -4.94771
upperback -0.96252 -1.93074 -0.456009
thorax 12.5626 -1.33089 1.62367
lowerneck 1.02256 -3.2235 -0.537523
upperneck -2.90135 -4.26701 0.95656
head -1.02255 -2.12976 0.43049
rclavicle -6.01324e-015 -1.03368e-014
rhumerus -34.9145 -14.3906 -80.8692
rradius 29.5041
rwrist 0.294517
rhand -9.07527 -52.2429
rfingers 7.12502
rthumb 16.874 -81.5298
lclavicle -6.01324e-015 -1.03368e-014
lhumerus -33.0944 -3.87524 85.9143
lradius 28.567
lwrist -3.16632
lhand -21.9436 -13.2965
lfingers 7.12502
lthumb 4.46326 16.6365
rfemur -31.6329 8.34363 18.0238
rtibia 28.5011
rfoot -26.7634 -6.55919
rtoes -19.1379
lfemur -31.7411 -10.9566 -20.2886
ltibia 28.4882
lfoot -16.1558 4.03378
ltoes -40.6133
435
root 9.37545 16.0729 23.8776 -155.782 -2.06204 176.981
lowerback -24.1074 -2.21113 -4.86663
upperback -0.964296 -1.91507 -0.465709
thorax 12.5923 -1.31945 1.56988
lowerneck 1.26354 -3.37396 -0.511784
upperneck -3.44748 -4.46437 0.779058
head -1.238 -2.22305 0.387335
rclavicle -2.13694e-015 1.49089e-014
rhumerus -34.7018 -14.5938 -80.9143
rradius 29.403
rwrist 0.492616
rhand -9.45881 -49.6114
rfingers 7.12502
rthumb 16.5047 -78.9294
lclavicle -2.13694e-015 1.49089e-014
lhumerus -32.537 -3.22873 85.7216
lradius 27.778
lwrist -3.67811
lhand -22.419 -13.3552
lfingers 7.12502
lthumb 4.00421 16.5869
rfemur -31.7623 8.49726 18.0608
rtibia 28.6447
rfoot -26.8488 -6.61921
rtoes -19.1198
lfemur -32.0418 -11.1217 -20.1921
ltibia 29.0016
lfoot -16.5697 3.99362
ltoes -39.6295
436
root 9.37838 16.0551 23.8753 -155.756 -2.11521 177.008
lowerback -24.0683 -2.19503 -4.82431
upperback -0.977078 -1.90703 -0.480033
thorax 12.5533 -1.31228 1.53365
lowerneck 1.7061 -3.56601 -0.330698
upperneck -4.00476 -4.72831 0.280635
head -1.50612 -2.3449 0.226431
rclavicle 4.72114e-015 -2.5842e-015
rhumerus -34.4476 -15.1727 -80.8493
rradius 29.1249
rwrist 1.0307
rhand -9.58022 -51.5233
rfingers 7.12502
rthumb 16.3879 -80.851
lclavicle 4.72114e-015 -2.5842e-015
lhumerus -32.1497 -2.71779 85.5365
lradius 27.2037
lwrist -4.01957
lhand -22.4891 -13.2082
lfingers 7.12502
lthumb 3.93648 16.7352
rfemur -31.8688 8.57414 18.1067
rtibia 28.8158
rfoot -26.974 -6.78179
rtoes -19.7025
lfemur -32.3312 -11.1879 -20.1395
ltibia 29.5157
lfoot -16.8265 3.88862
ltoes -38.9187
437
root 9.38018 16.044 23.8758 -155.871 -2.15003 177.064
lowerback -23.8726 -2.16468 -4.78724
upperback -0.947758 -1.88114 -0.455877
thorax 12.4774 -1.2946 1.55436
lowerneck 1.34842 -3.17014 -0.435108
upperneck -4.17396 -4.17956 0.61778
head -1.48989 -2.0718 0.332882
rclavicle 3.8266e-015 1.98785e-016
rhumerus -34.1429 -15.6554 -80.7701
rradius 28.901
rwrist 1.40343
rhand -9.86066 -49.8426
rfingers 7.12502
rthumb 16.1178 -79.1923
lclavicle 3.8266e-015 1.98785e-016
lhumerus -31.7585 -2.02464 85.3392
lradius 26.6935
lwrist -4.44573
lhand -22.341 -12.9369
lfingers 7.12502
lthumb 4.07944 17.0038
rfemur -31.8501 8.69424 18.1818
rtibia 29.0451
rfoot -27.144 -6.85094
rtoes -19.1935
lfemur -32.4644 -11.2431 -20.0728
ltibia 30.0029
lfoot -17.0858 3.7914
ltoes -37.7059
438
root 9.38011 16.0336 23.8712 -156.035 -2.14014 177.131
lowerback -23.736 -2.10766 -4.7341
upperback -0.855273 -1.81296 -0.428028
thorax 12.5041 -1.25629 1.58182
lowerneck 1.2402 -3.05242 -0.467536
upperneck -4.48893 -4.01301 0.594817
head -1.57228 -1.98269 0.330406
rclavicle 3.77691e-015 1.78906e-014
rhumerus -33.8249 -15.9154 -80.7609
rradius 28.7987
rwrist 1.63513
rhand -9.66014 -52.6254
rfingers 7.12502
rthumb 16.3109 -81.9594
lclavicle 3.77691e-015 1.78906e-014
lhumerus -31.1745 -1.08895 85.0927
lradius 26.0308
lwrist -5.11979
lhand -22.2781 -12.7963
lfingers 7.12502
lthumb 4.14019 17.1432
rfemur -31.7598 8.89179 18.2415
rtibia 29.2655
rfoot -27.3319 -6.8091
rtoes -17.8758
lfemur -32.4821 -11.3173 -20.0323
ltibia 30.4345
lfoot -17.3349 3.82633
ltoes -37.1702
439
root 9.38034 16.0251 23.8649 -156.128 -2.12694 177.158
lowerback -23.6654 -2.04043 -4.69294
upperback -0.794453 -1.72556 -0.455737
thorax 12.5275 -1.2103 1.55814
lowerneck 1.89642 -3.65685 -0.329882
upperneck -5.11261 -4.84022 -0.0206558
head -1.90388 -2.37842 0.15498
rclavicle 5.91384e-015 -6.16232e-015
rhumerus -33.57 -16.3508 -80.7473
rradius 28.6614
rwrist 1.99766
rhand -9.64813 -52.6492
rfingers 7.12502
rthumb 16.3225 -81.9823
lclavicle 5.91384e-015 -6.16232e-015
lhumerus -30.6189 -0.115949 84.7856
lradius 25.4178
lwrist -5.87603
lhand -22.2076 -12.4078
lfingers 7.12502
lthumb 4.20826 17.5304
rfemur -31.7268 9.0127 18.2591
rtibia 29.4061
rfoot -27.4469 -6.80731
rtoes -17.3971
lfemur -32.5438 -11.3178 -20.0615
ltibia 30.8371
lfoot -17.4811 4.06508
ltoes -38.9549
440
root 9.38093 16.0188 23.8596 -156.138 -2.11271 177.204
lowerback -23.6451 -1.93218 -4.63228
upperback -0.787052 -1.59271 -0.510345
thorax 12.5123 -1.14325 1.50767
lowerneck 2.04517 -3.9226 -0.218679
upperneck -5.50065 -5.18785 -0.0826601
head -2.06131 -2.54633 0.134038
rclavicle -5.91384e-015 2.5842e-015
rhumerus -33.5261 -16.6503 -80.8023
rradius 28.8239
rwrist 1.96517
rhand -9.94851 -49.9184
rfingers 7.12502
rthumb 16.0332 -79.275
lclavicle -5.91384e-015 2.5842e-015
lhumerus -30.1641 0.673023 84.4962
lradius 24.8609
lwrist -6.51467
lhand -22.0733 -12.2555
lfingers 7.12502
lthumb 4.33799 17.6801
rfemur -31.803 9.08888 18.2987
rtibia 29.5909
rfoot -27.6075 -6.81428
rtoes -17.1316
lfemur -32.6655 -11.3501 -20.0212
ltibia 31.1603
lfoot -17.569 4.34747
ltoes -40.4627
441
root 9.37959 16.0127 23.8514 -156.179 -2.08465 177.265
lowerback -23.6714 -1.7959 -4.5513
upperback -0.73529 -1.4199 -0.564542
thorax 12.572 -1.05641 1.45798
lowerneck 1.84727 -3.84823 -0.0887572
upperneck -5.76102 -5.0613 0.12693
head -2.10867 -2.48593 0.17379
rclavicle 7.00716e-015 -1.15295e-014
rhumerus -33.5325 -16.4893 -81.0313
rradius 29.2524
rwrist 1.61863
rhand -9.90703 -55.0708
rfingers 7.12502
rthumb 16.0732 -84.4242
lclavicle 7.00716e-015 -1.15295e-014
lhumerus -29.7058 1.34556 84.2499
lradius 24.3782
lwrist -7.0412
lhand -21.7978 -12.5362
lfingers 7.12502
lthumb 4.604 17.3937
rfemur -31.7594 9.15237 18.3519
rtibia 29.6635
rfoot -27.7634 -6.68449
rtoes -16.5412
lfemur -32.6879 -11.486 -19.9418
ltibia 31.364
lfoot -17.7766 4.43087
ltoes -39.5808
442
root 9.37798 16.0097 23.8396 -156.291 -2.02328 177.252
lowerback -23.6408 -1.71 -4.57387
upperback -0.686039 -1.2905 -0.599773
thorax 12.6036 -0.995835 1.47548
lowerneck 1.68752 -3.96014 -0.108561
upperneck -5.76616 -5.20569 0.163548
head -2.07992 -2.55679 0.188084
rclavicle -1.59028e-015 1.59028e-014
rhumerus -33.3895 -16.4099 -81.176
rradius 29.3595
rwrist 1.48321
rhand -10.2798 -49.7196
rfingers 7.12502
rthumb 15.7142 -79.1015
lclavicle -1.59028e-015 1.59028e-014
lhumerus -29.3362 2.11362 84.0705
lradius 23.9346
lwrist -7.36746
lhand -21.6362 -12.5423
lfingers 7.12502
lthumb 4.7601 17.3843
rfemur -31.4894 9.14115 18.3469
rtibia 29.4707
rfoot -27.7525 -6.5501
rtoes -16.6293
lfemur -32.5498 -11.6215 -19.9819
ltibia 31.4471
lfoot -17.9771 4.45151
ltoes -38.6171
443
root 9.3781 16.009 23.8258 -156.364 -1.99998 177.218
lowerback -23.6386 -1.69004 -4.63471
upperback -0.68959 -1.24773 -0.607406
thorax 12.5966 -0.979809 1.51635
lowerneck 1.76825 -4.10129 -0.13586
upperneck -5.93294 -5.39466 0.11103
head -2.14965 -2.6462 0.185123
rclavicle 5.36719e-015 2.46493e-014
rhumerus -33.183 -16.5587 -81.1889
rradius 29.2075
rwrist 1.59383
rhand -9.84836 -51.9097
rfingers 7.12502
rthumb 16.1297 -81.2585
lclavicle 5.36719e-015 2.46493e-014
lhumerus -29.1464 2.8387 83.952
lradius 23.6058
lwrist -7.34421
lhand -21.8084 -12.2233
lfingers 7.12502
lthumb 4.5938 17.7069
rfemur -31.198 9.10706 18.3362
rtibia 29.1887
rfoot -27.7228 -6.54739
rtoes -17.3595
lfemur -32.3775 -11.7178 -20.0456
ltibia 31.3809
lfoot -17.9634 4.65182
ltoes -39.5829
444
root 9.37889 16.01 23.8125 -156.365 -2.0087 177.225
lowerback -23.765 -1.68909 -4.64466
upperback -0.673259 -1.23741 -0.601777
thorax 12.6855 -0.977742 1.52904
lowerneck 1.64497 -3.77437 -0.142316
upperneck -6.2567 -4.92909 0.371006
head -2.22701 -2.41422 0.258136
rclavicle 1.14301e-015 4.19436e-014
rhumerus -32.9872 -16.4676 -81.3229
rradius 29.1993
rwrist 1.59219
rhand -9.54381 -52.9249
rfingers 7.12502
rthumb 16.4229 -82.2497
lclavicle 1.14301e-015 4.19436e-014
lhumerus -28.9837 3.29906 83.8804
lradius 23.5252
lwrist -7.1735
lhand -21.798 -11.66
lfingers 7.12502
lthumb 4.60379 18.27
rfemur -30.9945 9.04927 18.3942
rtibia 28.913
rfoot -27.7003 -6.6608
rtoes -18.2797
lfemur -32.2571 -11.7394 -20.0441
ltibia 31.2611
lfoot -17.8901 4.86136
ltoes -41.0094
